<?xml version="1.0" encoding="utf-8"?>
<!-- Generator: Adobe Illustrator 24.0.0, SVG Export Plug-In . SVG Version: 6.00 Build 0)  -->
<svg version="1.1" id="Layer_1" xmlns="http://www.w3.org/2000/svg" xmlns:xlink="http://www.w3.org/1999/xlink" x="0px" y="0px"
	 viewBox="0 0 450 250" style="enable-background:new 0 0 450 250;" xml:space="preserve">
<style type="text/css">
	.st0{fill:none;}
	.st1{fill:#2882FA;}
	.st2{enable-background:new    ;}
</style>
<g id="logo_blue" transform="translate(7557 -4418)">
	<rect id="Rectangle_2167" x="-7557" y="4418" class="st0" width="650" height="350"/>
	<g id="logo_blue-2" transform="translate(-2072 -60)">
		<g id="Group_1005" transform="translate(1276 2238)">
			<rect id="Rectangle_2163" x="-6637" y="2245" class="st0" width="200" height="200"/>
			<path id="Union_24" class="st1" d="M-6497.1,2409.2c-3.3-1.4-5.8-4-7.2-7.3c-2.1-5.1-1-11,2.9-15c1.2-1.2,2.7-2.2,4.3-2.9
				c3.4-1.4,7.2-1.4,10.5,0c1.6,0.7,3.1,1.7,4.3,2.9c5.3,5.4,5.3,14,0,19.3c-1.2,1.2-2.7,2.2-4.3,2.9
				C-6489.9,2410.6-6493.7,2410.6-6497.1,2409.2L-6497.1,2409.2z M-6496.3,2392c-2.5,2.5-2.5,6.6,0,9.1c2.4,2.5,6.4,2.5,8.9,0.1
				c0,0,0,0,0.1-0.1c2.5-2.5,2.5-6.6,0-9.1C-6489.7,2389.5-6493.7,2389.5-6496.3,2392C-6496.2,2392-6496.3,2392-6496.3,2392z
				 M-6599.5,2409.2c-1.6-0.7-3.1-1.7-4.3-2.9c-5.3-5.4-5.3-14,0-19.3c1.2-1.2,2.7-2.2,4.3-2.9c3.4-1.4,7.2-1.4,10.5,0
				c1.6,0.7,3.1,1.7,4.3,2.9c5.3,5.4,5.3,14,0,19.3c-1.2,1.2-2.7,2.2-4.3,2.9C-6592.3,2410.6-6596.1,2410.6-6599.5,2409.2z
				 M-6598.7,2392c-2.5,2.5-2.5,6.6,0,9.1c2.4,2.5,6.4,2.5,8.9,0.1c0,0,0,0,0.1-0.1c2.5-2.5,2.5-6.6,0-9.1
				C-6592.2,2389.5-6596.2,2389.5-6598.7,2392C-6598.7,2392-6598.7,2392-6598.7,2392z M-6611.4,2396.6h-4.9c-2.2,0-4-1.8-4-4v0
				c0-1.9,1.3-3.5,3.2-3.9v-4.1h-1c-0.6,0-1-0.4-1-1v-4c0-0.6,0.4-1,1-1h1v-10.6c2.7-6.8,10.5-26.1,10.6-26.3l35.5-2.7v44.1h68.9
				c-4.2,3.3-6.6,8.3-6.6,13.7h-68.3c0-4.6-1.8-9-5-12.2c-6.6-6.7-17.3-6.8-24-0.2c-0.1,0.1-0.1,0.1-0.2,0.2
				C-6609.6,2387.6-6611.4,2392-6611.4,2396.6L-6611.4,2396.6L-6611.4,2396.6z M-6590.9,2368.9L-6590.9,2368.9c0,0.6,0.4,1,1,1h4
				c0.6,0,1-0.4,1-1v0c0-0.6-0.4-1-1-1h-4C-6590.4,2367.9-6590.9,2368.3-6590.9,2368.9L-6590.9,2368.9z M-6604.2,2347.6l-7.9,20.7
				l27.3-3.5v-18.7L-6604.2,2347.6z M-6470.6,2396.6h-4c0-5.3-2.4-10.4-6.6-13.7h27.9l0,10l-10.2,3.7H-6470.6z M-6564.2,2379.1
				v-53.6h27.2c0.8,4.5,2.2,8.8,4.4,12.8c1.9,3.6,4,7,6.3,10.3l0.8,1.3c4.6,6.8,9.6,13.3,14.9,19.6l1.8,2.2l1.8-2.2
				c5.3-6.3,10.3-12.8,14.9-19.6l0.8-1.3l0,0c2.3-3.3,4.4-6.7,6.2-10.3c2.1-4,3.6-8.3,4.3-12.8h27.3v53.6H-6564.2z M-6508.8,2365
				l-1.6-1.9c-4.7-5.5-9-11.3-13.1-17.3l-0.7-1.1c-2.4-3.4-4.5-7.1-6.4-10.9c-2.1-4.3-3.2-9-3.3-13.8c0-3.4,0.7-6.7,2-9.9
				c0.2-0.5,0.5-1.1,0.7-1.6l4.7,4c-0.3,0.5-0.5,1.1-0.7,1.6c-3.2,7.6-1.5,16.3,4.3,22.1c1.8,1.8,4,3.3,6.4,4.3
				c5,2.1,10.6,2.1,15.6,0c2.4-1,4.5-2.5,6.4-4.3c5.8-5.8,7.4-14.6,4.3-22.1c-0.2-0.6-0.5-1.2-0.8-1.7l4.8-4.1
				c0.3,0.6,0.6,1.1,0.8,1.7c1.3,3.1,2,6.5,2,9.9c0,10.1-5.6,18.5-9.7,24.6l0,0l-0.7,1.1c-4.1,6-8.5,11.7-13.1,17.3L-6508.8,2365
				L-6508.8,2365L-6508.8,2365z M-6514.2,2334.5c-1.6-0.7-3.1-1.7-4.3-2.9c-5.3-5.4-5.3-14,0-19.3c1.2-1.2,2.7-2.2,4.3-2.9
				c3.4-1.4,7.2-1.4,10.5,0c1.6,0.7,3.1,1.7,4.3,2.9c5.3,5.4,5.3,14,0,19.3c-1.2,1.2-2.7,2.2-4.3,2.9
				C-6507,2335.9-6510.8,2335.9-6514.2,2334.5z M-6513.3,2317.4c-2.5,2.5-2.5,6.6,0,9.2c2.5,2.5,6.5,2.5,9,0.1c0,0,0,0,0.1-0.1
				c2.5-2.5,2.5-6.6,0-9.2C-6506.7,2314.9-6510.7,2314.9-6513.3,2317.4C-6513.3,2317.4-6513.3,2317.4-6513.3,2317.4z
				 M-6515.3,2321.9L-6515.3,2321.9C-6515.3,2321.9-6515.3,2321.9-6515.3,2321.9C-6515.3,2321.9-6515.3,2321.9-6515.3,2321.9
				L-6515.3,2321.9z M-6508.8,2301.7c-5.1-0.1-10.1,2-13.7,5.6l-4.6-4.6c10.1-10,26.3-10,36.4,0l0,0l-4.5,4.6
				C-6498.7,2303.6-6503.6,2301.6-6508.8,2301.7L-6508.8,2301.7z M-6531.3,2297.5l-4.5-4.6c14.7-14.9,39.5-14.9,54.2,0l-4.5,4.6
				C-6498.7,2285.1-6518.8,2285.1-6531.3,2297.5L-6531.3,2297.5z"/>
		</g>
		<g class="st2">
			<path class="st1" d="M-5480,4681.9h21.7v5.5h-7.4v22.6h-6.8v-22.6h-7.4V4681.9z"/>
			<path class="st1" d="M-5443.4,4681.9c6.9,0,10.3,4,10.3,8.8c0,3.5-1.9,6.8-6.2,8.1l6.5,11.1h-7.7l-5.8-10.6h-1.6v10.6h-6.8v-28.1
				H-5443.4z M-5443.8,4687.6h-4.2v7h4.2c2.6,0,3.8-1.3,3.8-3.5C-5440,4689-5441.2,4687.6-5443.8,4687.6z"/>
			<path class="st1" d="M-5411.3,4705h-10.5l-1.7,5h-7.2l10.2-28.1h7.9l10.2,28.1h-7.2L-5411.3,4705z M-5416.6,4689.5l-3.4,10.3h6.9
				L-5416.6,4689.5z"/>
			<path class="st1" d="M-5374.2,4681.9v28.1h-6.8l-11.4-17.3v17.3h-6.8v-28.1h6.8l11.4,17.4v-17.4H-5374.2z"/>
			<path class="st1" d="M-5359.1,4710.3c-6,0-10.8-3-11-8.7h7.3c0.2,2.2,1.6,3.2,3.5,3.2c2,0,3.3-1,3.3-2.6c0-5.2-14-2.4-14-12.4
				c0-5.3,4.4-8.3,10.2-8.3c6.1,0,10.2,3,10.5,8.4h-7.4c-0.1-1.8-1.4-2.9-3.2-2.9c-1.6,0-2.9,0.8-2.9,2.6c0,4.9,13.9,2.7,13.9,12.1
				C-5348.8,4706.4-5352.5,4710.3-5359.1,4710.3z"/>
			<path class="st1" d="M-5333.6,4699.9h-4.2v10.1h-6.8v-28.1h11.1c6.9,0,10.3,3.9,10.3,9
				C-5323.2,4695.6-5326.4,4699.9-5333.6,4699.9z M-5334.1,4694.5c2.7,0,3.9-1.4,3.9-3.5c0-2.2-1.2-3.5-3.9-3.5h-3.7v7H-5334.1z"/>
			<path class="st1" d="M-5306.4,4710.3c-8,0-14.4-6-14.4-14.4c0-8.4,6.5-14.4,14.4-14.4c8,0,14.4,5.9,14.4,14.4
				C-5292,4704.3-5298.4,4710.3-5306.4,4710.3z M-5306.4,4704c4.5,0,7.4-3.2,7.4-8.2c0-5-2.9-8.2-7.4-8.2c-4.6,0-7.4,3.2-7.4,8.2
				C-5313.8,4700.8-5311,4704-5306.4,4704z"/>
			<path class="st1" d="M-5276.8,4681.9c6.9,0,10.3,4,10.3,8.8c0,3.5-1.9,6.8-6.2,8.1l6.5,11.1h-7.7l-5.8-10.6h-1.6v10.6h-6.8v-28.1
				H-5276.8z M-5277.2,4687.6h-4.2v7h4.2c2.6,0,3.8-1.3,3.8-3.5C-5273.4,4689-5274.6,4687.6-5277.2,4687.6z"/>
			<path class="st1" d="M-5263.7,4681.9h21.7v5.5h-7.4v22.6h-6.8v-22.6h-7.4V4681.9z"/>
			<path class="st1" d="M-5219.9,4710.3c-6,0-10.8-3-11-8.7h7.3c0.2,2.2,1.6,3.2,3.5,3.2c2,0,3.3-1,3.3-2.6c0-5.2-14-2.4-14-12.4
				c0-5.3,4.4-8.3,10.2-8.3c6.1,0,10.2,3,10.5,8.4h-7.4c-0.1-1.8-1.4-2.9-3.2-2.9c-1.6,0-2.9,0.8-2.9,2.6c0,4.9,13.9,2.7,13.9,12.1
				C-5209.6,4706.4-5213.3,4710.3-5219.9,4710.3z"/>
			<path class="st1" d="M-5188.2,4687.4h-10.4v5.7h9.2v5.3h-9.2v6.2h10.4v5.5h-17.2v-28.1h17.2V4687.4z"/>
			<path class="st1" d="M-5170.8,4681.6c6.7,0,11.7,3.8,13.3,9.8h-7.5c-1.2-2.4-3.3-3.6-5.9-3.6c-4.2,0-7.1,3.1-7.1,8.1
				c0,5,2.9,8.1,7.1,8.1c2.6,0,4.7-1.2,5.9-3.6h7.5c-1.6,6.1-6.6,9.8-13.3,9.8c-8.3,0-14.1-5.9-14.1-14.3
				C-5185,4687.5-5179.1,4681.6-5170.8,4681.6z"/>
			<path class="st1" d="M-5153.4,4681.9h6.8v16.8c0,3.3,1.6,5.2,4.9,5.2s5-1.9,5-5.2v-16.8h6.8v16.8c0,7.8-5.4,11.6-11.9,11.6
				c-6.5,0-11.6-3.8-11.6-11.6V4681.9z"/>
			<path class="st1" d="M-5113.6,4681.9c6.9,0,10.3,4,10.3,8.8c0,3.5-1.9,6.8-6.2,8.1l6.5,11.1h-7.7l-5.8-10.6h-1.6v10.6h-6.8v-28.1
				H-5113.6z M-5114,4687.6h-4.2v7h4.2c2.6,0,3.8-1.3,3.8-3.5C-5110.3,4689-5111.5,4687.6-5114,4687.6z"/>
			<path class="st1" d="M-5099,4681.9h6.8v28.1h-6.8V4681.9z"/>
			<path class="st1" d="M-5088.8,4681.9h21.7v5.5h-7.4v22.6h-6.8v-22.6h-7.4V4681.9z"/>
			<path class="st1" d="M-5065.8,4681.9h7.8l5.4,11.8l5.4-11.8h7.7l-9.7,18.8v9.3h-6.8v-9.3L-5065.8,4681.9z"/>
		</g>
	</g>
</g>
</svg>
