<svg id="Capa_1" enable-background="new 0 0 512 512" height="512" viewBox="0 0 512 512" width="512" xmlns="http://www.w3.org/2000/svg"><g><path d="m434.347 24.756h-43.386l-4.336 3.394v80.187l2.053 6.488 45.415 40.595 3.568-2.479v-124.791z" fill="#ffe07d"/><path d="m412.144 24.756h-21.183l-4.336 3.394v80.187l2.053 6.488 23.466 20.975z" fill="#ffd064"/><path d="m430.372 184.005-174.372-151.553-176.096 152.907-5.565 14.757v304.272h363.322v-304.272z" fill="#90d8f9"/><path d="m115.61 241.716c0-19.907 8.815-38.174 23.045-50.53l150.061-130.3-32.716-28.434-176.096 152.907-5.565 14.758v304.272h41.271z" fill="#75cef9"/><path d="m447.29 0h-70.292c-3.383 0-6.125 2.742-6.125 6.125v15.899c0 3.383 2.742 6.125 6.125 6.125h70.292c3.383 0 6.125-2.742 6.125-6.125v-15.898c0-3.384-2.743-6.126-6.125-6.126z" fill="#fff0af"/><path d="m407.407 22.025v-15.899c0-3.383 2.742-6.125 6.125-6.125h-36.535c-3.383 0-6.125 2.742-6.125 6.125v15.899c0 3.383 2.742 6.125 6.125 6.125h36.535c-3.382 0-6.125-2.742-6.125-6.125z" fill="#ffe07d"/><path d="m479.989 189.935-212.301-185.547c-6.694-5.85-16.682-5.85-23.376 0l-212.301 185.547c-7.386 6.455-8.14 17.675-1.685 25.06 6.456 7.386 17.676 8.139 25.061 1.685l197.804-172.877c1.609-1.406 4.01-1.406 5.619 0l197.803 172.877c7.386 6.454 18.604 5.701 25.061-1.685 6.454-7.386 5.7-18.606-1.685-25.06z" fill="#dd636e"/><g><path d="m47.234 200.083 212.301-185.547c4.277-3.738 9.897-5.075 15.146-4.036l-6.994-6.113c-6.694-5.85-16.682-5.85-23.376 0l-212.3 185.547c-7.386 6.455-8.14 17.675-1.685 25.06 3.314 3.792 7.885 5.822 12.547 6.04-3.308-6.997-1.755-15.605 4.361-20.951z" fill="#da4a54"/></g><path d="m254.018 199.292c-44.649 1.055-80.532 38.383-79.91 83.041.302 21.639 8.995 41.249 22.972 55.723 9.64 9.982 14.778 23.478 14.778 37.355v5.46l2.935 3.212h83.789l1.559-3.212v-5.609c0-14.079 5.578-27.508 15.271-37.72 13.937-14.684 22.488-34.53 22.488-56.373.001-45.891-37.744-82.967-83.882-81.877z" fill="#ffe07d"/><path d="m248.393 375.411c0-13.877-5.138-27.372-14.778-37.355-13.978-14.474-22.671-34.084-22.972-55.723-.544-39.077 26.863-72.542 63.637-81.002-6.496-1.481-13.28-2.203-20.262-2.038-44.649 1.055-80.532 38.383-79.91 83.041.302 21.639 8.995 41.249 22.972 55.723 9.64 9.982 14.778 23.478 14.778 37.355v5.46l2.935 3.212h36.535l-2.935-3.212z" fill="#ffc250"/><path d="m279.099 305.24h-46.198c-4.204 0-7.612 3.408-7.612 7.612s3.408 7.612 7.612 7.612h15.488v67.143c0 4.204 3.408 7.612 7.612 7.612s7.612-3.408 7.612-7.612v-67.143h15.488c4.204 0 7.612-3.408 7.612-7.612s-3.41-7.612-7.614-7.612z" fill="#ffc250"/><g fill="#ffe07d"><path d="m388.61 275.091h-20.974c-4.204 0-7.612 3.408-7.612 7.612s3.408 7.612 7.612 7.612h20.974c4.204 0 7.612-3.408 7.612-7.612s-3.408-7.612-7.612-7.612z"/><path d="m144.365 275.091h-20.974c-4.204 0-7.612 3.408-7.612 7.612s3.408 7.612 7.612 7.612h20.974c4.204 0 7.612-3.408 7.612-7.612s-3.409-7.612-7.612-7.612z"/><path d="m344.387 183.551-14.831 14.831c-2.973 2.972-2.973 7.792 0 10.764 1.486 1.486 3.434 2.229 5.382 2.229s3.896-.743 5.382-2.229l14.831-14.831c2.973-2.972 2.973-7.792 0-10.764-2.972-2.972-7.791-2.972-10.764 0z"/><path d="m171.68 356.258-14.831 14.831c-2.973 2.972-2.973 7.792 0 10.764 1.486 1.486 3.434 2.229 5.382 2.229s3.896-.743 5.382-2.229l14.831-14.831c2.973-2.972 2.973-7.792 0-10.764-2.972-2.972-7.792-2.972-10.764 0z"/><path d="m256 178.678c4.204 0 7.612-3.408 7.612-7.612v-20.974c0-4.204-3.408-7.612-7.612-7.612s-7.612 3.408-7.612 7.612v20.974c.001 4.204 3.408 7.612 7.612 7.612z"/><path d="m167.613 183.551c-2.972-2.973-7.792-2.972-10.764 0-2.973 2.972-2.973 7.791 0 10.764l14.831 14.831c1.486 1.487 3.434 2.229 5.382 2.229s3.896-.743 5.382-2.229c2.973-2.972 2.973-7.791 0-10.764z"/><path d="m340.32 356.258c-2.972-2.973-7.792-2.972-10.764 0-2.973 2.973-2.973 7.792 0 10.764l14.831 14.831c1.486 1.487 3.434 2.229 5.382 2.229s3.896-.743 5.382-2.229c2.973-2.973 2.973-7.792 0-10.764z"/></g><g><path d="m459.481 512h-406.962c-4.204 0-7.612-3.408-7.612-7.612s3.408-7.612 7.612-7.612h406.962c4.204 0 7.612 3.408 7.612 7.612s-3.408 7.612-7.612 7.612z" fill="#b3e59f"/></g><path d="m277.439 437.166h-41.948l-2.59 3.052v7.281c0 10.411 8.44 24.939 18.85 24.939h8.498c10.411 0 18.85-14.529 18.85-24.939v-7.281z" fill="#3f6d8e"/><path d="m256 447.498v-7.281l2.59-3.052h-23.099l-2.59 3.052v7.281c0 10.411 8.44 24.939 18.85 24.939h8.498c2.589 0 5.055-.9 7.301-2.409-6.785-4.563-11.55-14.708-11.55-22.53z" fill="#365e7d"/><path d="m295.385 379.915h-78.77c-6.794 0-12.302 5.508-12.302 12.302v5.546c0 6.794 5.508 12.302 12.302 12.302h78.77c6.794 0 12.302-5.508 12.302-12.302v-5.546c0-6.794-5.508-12.302-12.302-12.302z" fill="#e4f6ff"/><path d="m238.979 397.764v-5.546c0-6.794 5.508-12.302 12.303-12.302h-34.667c-6.794 0-12.302 5.508-12.302 12.302v5.546c0 6.794 5.508 12.302 12.302 12.302h34.667c-6.795 0-12.303-5.508-12.303-12.302z" fill="#d3effb"/><path d="m297.206 427.915v-5.546c0-6.794-5.508-12.302-12.302-12.302h-57.808c-6.794 0-12.302 5.508-12.302 12.302v5.546c0 6.794 5.508 12.302 12.302 12.302h57.808c6.794 0 12.302-5.508 12.302-12.302z" fill="#e4f6ff"/><path d="m249.46 427.915v-5.546c0-6.794 5.508-12.302 12.303-12.302h-34.666c-6.795 0-12.303 5.508-12.303 12.302v5.546c0 6.794 5.508 12.302 12.303 12.302h34.666c-6.795 0-12.303-5.508-12.303-12.302z" fill="#d3effb"/></g></svg>